<svg xmlns="http://www.w3.org/2000/svg" width="16" height="12"><path fill="#666" d="M1.993 11.42C.892 11.42 0 10.614 0 9.628V2.245C0 1.255.896.453 1.993.453h12.006c1.101 0 1.994.806 1.994 1.792v7.383c0 .989-.897 1.792-1.994 1.792zm3.842-5.57L2.017 9.085a.412.412 0 00-.02.623.53.53 0 00.693.022l3.9-3.304 1.089.832a.531.531 0 00.632 0L9.4 6.426l3.902 3.301a.53.53 0 00.692-.021.409.409 0 00-.02-.623l-3.818-3.232L13.96 2.95a.413.413 0 00.056-.622.532.532 0 00-.692-.05L7.996 6.34 2.673 2.273a.528.528 0 00-.692.051.41.41 0 00.056.623z"/><path fill="#00ceb9" d="M1.993 11.42C.892 11.42 0 10.614 0 9.628V2.245C0 1.255.896.453 1.993.453h12.006c1.101 0 1.994.806 1.994 1.792v7.383c0 .989-.897 1.792-1.994 1.792zm3.842-5.57L2.017 9.085a.412.412 0 00-.02.623.53.53 0 00.693.022l3.9-3.304 1.089.832a.531.531 0 00.632 0L9.4 6.426l3.902 3.301a.53.53 0 00.692-.021.409.409 0 00-.02-.623l-3.818-3.232L13.96 2.95a.413.413 0 00.056-.622.532.532 0 00-.692-.05L7.996 6.34 2.673 2.273a.528.528 0 00-.692.051.41.41 0 00.056.623z"/></svg>